<svg width="499" height="117" viewBox="0 0 499 117" fill="none" xmlns="http://www.w3.org/2000/svg">
<path d="M38.5 115.8H13.5C6.59645 115.8 1 109.351 1 101.395C1 93.4397 6.59645 86.9905 13.5 86.9905H38.5C45.4035 86.9905 51 93.4397 51 101.395C51 109.351 45.4035 115.8 38.5 115.8Z" fill="#388578" stroke="black" stroke-width="2"/>
<path d="M40.5 103.124C41.8807 103.124 43 101.834 43 100.243C43 98.6517 41.8807 97.3619 40.5 97.3619C39.1193 97.3619 38 98.6517 38 100.243C38 101.834 39.1193 103.124 40.5 103.124Z" fill="white" stroke="white" stroke-linecap="round" stroke-linejoin="round"/>
<path d="M469 1.88574L497.742 33" stroke="#B9B9B9" stroke-width="2" stroke-linecap="round" stroke-linejoin="round"/>
<path d="M480.976 16.3085C480.479 16.9179 480.177 17.7185 480.177 18.5953C480.177 20.5045 481.607 22.0524 483.371 22.0524C484.181 22.0524 484.92 21.726 485.483 21.1881" stroke="#B9B9B9" stroke-width="2" stroke-linecap="round" stroke-linejoin="round"/>
<path d="M475.965 10.9223C473.279 12.9596 471.042 15.862 469 18.5953C472.016 23.7654 477.434 28.9667 483.371 28.9667C485.846 28.9667 488.231 28.063 490.389 26.6345" stroke="#B9B9B9" stroke-width="2" stroke-linecap="round" stroke-linejoin="round"/>
<path d="M483.371 8.22385C489.771 8.22385 494.072 13.683 497.742 18.5953C497.233 19.467 496.657 20.3397 496.021 21.1881" stroke="#B9B9B9" stroke-width="2" stroke-linecap="round" stroke-linejoin="round"/>
</svg>
