<svg width="83" height="83" viewBox="0 0 83 83" fill="none" xmlns="http://www.w3.org/2000/svg">
<path d="M1.67783 43.6608C2.76542 43.0222 3.87117 42.4151 4.99371 41.8402L4.23505 40.3572C3.08254 40.9468 1.94944 41.5737 0.83754 42.2367L1.67783 43.6608ZM8.41386 40.194C9.56684 39.6699 10.7348 39.1794 11.9163 38.7233L11.2976 37.1703C10.0969 37.6445 8.90581 38.1428 7.72517 38.665L8.41386 40.194ZM15.4771 37.4275C16.6763 37.0226 17.8871 36.6527 19.1078 36.3183L18.6524 34.7187C17.4149 35.0685 16.1774 35.4424 14.9517 35.8512L15.4771 37.4275ZM22.7729 35.3841C24.0103 35.1042 25.2478 34.847 26.4976 34.6254L26.2054 32.9791C24.9329 33.2014 23.6721 33.4579 22.3997 33.7501L22.7729 35.3841ZM30.2449 34.0533C31.5024 33.8917 32.7636 33.7595 34.0272 33.6569L33.8866 31.9989C32.5909 32.1039 31.3184 32.2321 30.0343 32.3954L30.2449 34.0533ZM37.8096 33.4229C39.0735 33.3765 40.3384 33.3651 41.6029 33.3886L41.6152 31.7184C40.3188 31.7067 39.0354 31.7067 37.7396 31.7657L37.8096 33.4229ZM45.3976 33.5162C46.6583 33.5862 47.9191 33.7035 49.1799 33.8434L49.3665 32.1855C48.0816 32.0455 46.7931 31.9403 45.5025 31.8699L45.3976 33.5162ZM52.9389 34.3339C54.188 34.5321 55.4371 34.7537 56.6746 35.0109L57.0018 33.3763C55.7346 33.1174 54.4616 32.8878 53.1838 32.6876L52.9389 34.3339ZM60.3753 35.8636C61.6011 36.1784 62.8152 36.5289 64.0294 36.9021L64.5198 35.3141C63.2865 34.9317 62.0446 34.5776 60.7951 34.2523L60.3753 35.8636ZM67.6141 38.1046C68.8049 38.5477 69.9724 39.0148 71.1399 39.5053L71.7936 37.9646C70.6005 37.4694 69.3976 36.9983 68.1855 36.5516L67.6141 38.1046ZM74.595 41.0699C75.7392 41.6297 76.8601 42.2134 77.9576 42.8205L78.7629 41.3614C77.6307 40.736 76.4822 40.1404 75.3187 39.5752L74.595 41.0699Z" fill="black"/>
<path d="M70.2633 45.6109L69.8318 44.0113L77.7587 41.8519L75.0382 34.0883L76.6145 33.5396L79.9297 42.9954L70.2633 45.6109Z" fill="black"/>
</svg>
