<svg width="68" height="46" viewBox="0 0 68 46" fill="none" xmlns="http://www.w3.org/2000/svg">
<path fill-rule="evenodd" clip-rule="evenodd" d="M26.9137 41.6389C24.3139 43.8861 21.1756 45 17.5533 45C13.9311 45 10.7927 43.8861 8.1929 41.6389L8.18609 41.633C5.64369 39.3916 3.8053 36.6006 2.67286 33.2814C1.55308 29.9993 1 26.3932 1 22.4688C1 18.5443 1.55308 14.9372 2.67286 11.6561C3.80627 8.335 5.64564 5.56252 8.19387 3.36114C10.7918 1.11289 13.9311 0 17.5533 0C21.1756 0 24.3139 1.11387 26.9137 3.36114C29.462 5.5635 31.2819 8.33792 32.3734 11.662C33.4912 14.9421 34.0443 18.5473 34.0443 22.4688C34.0443 26.3912 33.4912 29.9954 32.3734 33.2756C31.2828 36.5976 29.4639 39.3906 26.9205 41.633L26.9137 41.6389ZM31.4503 11.9724C30.4113 8.80651 28.6878 6.1834 26.2779 4.10014C23.8679 2.01785 20.9604 0.976224 17.5533 0.976224C14.1463 0.976224 11.2387 2.01785 8.82874 4.10014C6.41878 6.18242 4.67386 8.80651 3.594 11.9724C2.51317 15.1383 1.97372 18.6371 1.97372 22.4688C1.97372 26.3004 2.51414 29.8002 3.594 32.9651C4.67484 36.131 6.41878 38.7756 8.82874 40.8999C11.2387 42.9821 14.1463 44.0238 17.5533 44.0238C20.9604 44.0238 23.8679 42.9821 26.2779 40.8999C28.6878 38.7756 30.4113 36.131 31.4503 32.9651C32.5311 29.7992 33.0706 26.3004 33.0706 22.4688C33.0706 18.6371 32.5302 15.1373 31.4503 11.9724ZM20.6945 31.5545L20.6975 31.5467C21.4609 29.5942 21.8766 26.5962 21.8766 22.4688C21.8766 18.2964 21.4609 15.3033 20.6994 13.3967L20.6965 13.3889L20.6936 13.3811C20.344 12.4586 19.9 11.8474 19.4053 11.4657C18.9214 11.0919 18.3216 10.8868 17.5533 10.8868C16.7597 10.8868 16.1346 11.0948 15.6273 11.4736C15.1122 11.8592 14.6526 12.4722 14.2855 13.3889C13.562 15.3023 13.1677 18.2993 13.1677 22.4688C13.1677 26.5923 13.561 29.5952 14.2874 31.5545C14.6575 32.4946 15.119 33.1223 15.6351 33.5167C16.1414 33.9023 16.7646 34.1132 17.5533 34.1132C18.3167 34.1132 18.9146 33.9052 19.3985 33.5245C19.8951 33.134 20.3401 32.5082 20.6916 31.5623L20.6945 31.5545ZM13.378 13.0345C14.2086 10.9523 15.601 9.91062 17.5533 9.91062C19.4647 9.91062 20.8153 10.9523 21.604 13.0345C22.4346 15.1168 22.8504 18.2622 22.8504 22.4688C22.8504 26.6343 22.4346 29.7787 21.604 31.903C20.8153 34.0272 19.4647 35.0894 17.5533 35.0894C15.601 35.0894 14.2086 34.0272 13.378 31.903C12.5893 29.7787 12.1939 26.6343 12.1939 22.4688C12.1939 18.2612 12.5883 15.1178 13.378 13.0345ZM41.3745 43.0973L41.3657 43.0934C38.6344 41.7892 36.4465 40.0955 34.8418 37.9946L34.352 37.3532L41.4164 29.4322L42.1418 30.258C44.4184 32.8499 47.1487 34.1132 50.3844 34.1132C52.178 34.1132 53.3455 33.7393 54.0553 33.1565C54.7876 32.5151 55.1439 31.7253 55.1439 30.7159C55.1439 29.6489 54.7661 28.9587 54.0534 28.4833C53.2685 27.962 51.9696 27.631 50.0105 27.631C47.6609 27.631 46.3249 27.6525 45.9237 27.6896L44.8614 27.7862V16.6514L45.9228 16.7491C46.3249 16.7852 47.58 16.8067 49.7612 16.8067C51.6181 16.8067 52.8411 16.4962 53.5743 16.014C54.2355 15.5786 54.5831 14.9509 54.5831 13.9717C54.5831 12.9232 54.214 12.2487 53.5217 11.785L53.5091 11.7772L53.4983 11.7694C52.7223 11.2188 51.5743 10.8868 49.9481 10.8868C46.9043 10.8868 44.432 12.0154 42.4583 14.2987L41.7543 15.1129L34.9031 7.8586L35.3978 7.19965C39.0122 2.38199 44.2003 0 50.8206 0C55.4779 0 59.2647 1.02699 62.0671 3.19811C64.9542 5.36142 66.3768 8.45605 66.3768 12.3473C66.3768 14.8796 65.5199 17.1444 63.8354 19.1066L63.8276 19.1164C62.9072 20.1757 61.7959 21.0517 60.552 21.6985C61.8918 22.3126 63.1032 23.2029 64.184 24.3646C66.0633 26.3873 67 28.8572 67 31.7155C67 35.6683 65.481 38.925 62.4683 41.4046L62.4624 41.4104C59.4624 43.8344 55.55 45 50.8206 45C47.3376 45 44.1856 44.3752 41.3823 43.1012L41.3745 43.0973ZM59.3037 22.2481C58.6844 22.0314 58.0378 21.8772 57.364 21.7815C58.0185 21.6518 58.6594 21.4609 59.2784 21.2114C60.738 20.6198 62.0106 19.706 63.0973 18.4701C64.6348 16.6788 65.4031 14.6385 65.4031 12.3473C65.4031 8.72353 64.0944 5.93349 61.477 3.97518C58.9015 1.97588 55.3494 0.976224 50.8206 0.976224C44.4641 0.976224 39.5829 3.24594 36.1758 7.78636L41.7221 13.6593C41.9383 13.4084 42.1603 13.1712 42.3891 12.9457C44.4378 10.922 46.9578 9.91062 49.9481 9.91062C51.6931 9.91062 53.0641 10.265 54.0612 10.9728C55.0583 11.6395 55.5568 12.6392 55.5568 13.9717C55.5568 16.5128 53.6249 17.7829 49.7612 17.7829C48.4759 17.7829 47.4914 17.7751 46.8089 17.7604C46.484 17.7567 46.1592 17.7433 45.8351 17.7204V26.7173C46.0153 26.7007 46.3395 26.688 46.8089 26.6782C47.876 26.6598 48.9432 26.652 50.0105 26.6548C54.0816 26.6548 56.1177 28.0088 56.1177 30.7159C56.1177 32.0074 55.6405 33.0686 54.6843 33.9023C53.7291 34.693 52.2958 35.0894 50.3844 35.0894C47.1682 35.0894 44.3999 33.9316 42.0795 31.617C41.8488 31.3865 41.6256 31.1485 41.4105 30.9033L35.6149 37.4011C37.1106 39.3584 39.1671 40.9623 41.7844 42.2119C44.4427 43.4195 47.4554 44.0238 50.8206 44.0238C55.3903 44.0238 59.068 42.8992 61.8509 40.6499C64.6348 38.3587 66.0263 35.3813 66.0263 31.7155C66.0263 29.0915 65.1743 26.8637 63.4712 25.0304C62.2521 23.7193 60.8636 22.7909 59.3037 22.2481Z" fill="black"/>
</svg>
