<svg width="58" height="46" viewBox="0 0 58 46" fill="none" xmlns="http://www.w3.org/2000/svg">
<g clip-path="url(#clip0_18_784)">
<path fill-rule="evenodd" clip-rule="evenodd" d="M26.1744 41.7455C23.5612 43.9985 20.4068 45.1152 16.766 45.1152C13.1251 45.1152 9.97068 43.9985 7.35748 41.7455L7.35063 41.7396C4.79519 39.4925 2.94736 36.6943 1.8091 33.3666C0.68357 30.0762 0.127655 26.4608 0.127655 22.5263C0.127655 18.5918 0.68357 14.9754 1.8091 11.686C2.94834 8.35634 4.79714 5.57677 7.35846 3.36974C9.9697 1.11574 13.1251 0 16.766 0C20.4068 0 23.5612 1.11672 26.1744 3.36974C28.7357 5.57774 30.565 8.35928 31.6621 11.6918C32.7857 14.9803 33.3416 18.5948 33.3416 22.5263C33.3416 26.4588 32.7857 30.0723 31.6621 33.3608C30.566 36.6914 28.7377 39.4915 26.1813 41.7396L26.1744 41.7455ZM30.7343 12.0031C29.69 8.82906 27.9577 6.19923 25.5353 4.11064C23.113 2.02302 20.1905 0.978723 16.766 0.978723C13.3414 0.978723 10.4189 2.02302 7.99659 4.11064C5.57425 6.19826 3.82038 8.82906 2.73497 12.0031C1.64859 15.1771 1.10638 18.6848 1.10638 22.5263C1.10638 26.3678 1.64957 29.8765 2.73497 33.0495C3.82136 36.2235 5.57425 38.8749 7.99659 41.0046C10.4189 43.0922 13.3414 44.1365 16.766 44.1365C20.1905 44.1365 23.113 43.0922 25.5353 41.0046C27.9577 38.8749 29.69 36.2235 30.7343 33.0495C31.8207 29.8755 32.3629 26.3678 32.3629 22.5263C32.3629 18.6848 31.8197 15.1761 30.7343 12.0031ZM19.9233 31.6353L19.9263 31.6274C20.6936 29.67 21.1115 26.6643 21.1115 22.5263C21.1115 18.3432 20.6936 15.3425 19.9282 13.431L19.9253 13.4232L19.9223 13.4154C19.571 12.4905 19.1247 11.8778 18.6275 11.4951C18.1411 11.1203 17.5382 10.9147 16.766 10.9147C15.9683 10.9147 15.34 11.1232 14.83 11.5029C14.3123 11.8895 13.8503 12.5042 13.4814 13.4232C12.7542 15.3415 12.3578 18.3462 12.3578 22.5263C12.3578 26.6604 12.7532 29.671 13.4833 31.6353C13.8552 32.5778 14.3191 33.2071 14.8379 33.6025C15.3468 33.9891 15.9732 34.2005 16.766 34.2005C17.5333 34.2005 18.1342 33.992 18.6206 33.6103C19.1198 33.2188 19.5671 32.5915 19.9204 31.6431L19.9233 31.6353ZM12.5692 13.0679C13.404 10.9803 14.8036 9.936 16.766 9.936C18.6872 9.936 20.0447 10.9803 20.8374 13.0679C21.6723 15.1555 22.0902 18.309 22.0902 22.5263C22.0902 26.7025 21.6723 29.855 20.8374 31.9847C20.0447 34.1144 18.6872 35.1792 16.766 35.1792C14.8036 35.1792 13.404 34.1144 12.5692 31.9847C11.7764 29.855 11.3791 26.7025 11.3791 22.5263C11.3791 18.308 11.7754 15.1565 12.5692 13.0679ZM57.384 44.3636H45.2791V16.9671L39.9862 22.3668L32.8611 14.9304L47.2307 0.626383H57.383L57.384 44.3636ZM46.2578 14.5712V43.3848H56.4052V1.60511H47.6359L34.2313 14.9471L39.994 20.9603L46.2578 14.5712Z" fill="black"/>
</g>
<defs>
<clipPath id="clip0_18_784">
<rect width="57.7447" height="46" fill="white" transform="translate(0.127655)"/>
</clipPath>
</defs>
</svg>
