<svg width="67" height="46" viewBox="0 0 67 46" fill="none" xmlns="http://www.w3.org/2000/svg">
<g clip-path="url(#clip0_18_800)">
<path fill-rule="evenodd" clip-rule="evenodd" d="M26.2702 41.7455C23.657 43.9985 20.5026 45.1152 16.8617 45.1152C13.2209 45.1152 10.0664 43.9985 7.45323 41.7455L7.44638 41.7396C4.89094 39.4925 3.04311 36.6943 1.90485 33.3666C0.779319 30.0762 0.223404 26.4608 0.223404 22.5263C0.223404 18.5918 0.779319 14.9754 1.90485 11.686C3.04408 8.35634 4.89289 5.57677 7.45421 3.36974C10.0654 1.11574 13.2209 0 16.8617 0C20.5026 0 23.657 1.11672 26.2702 3.36974C28.8315 5.57774 30.6607 8.35928 31.7579 11.6918C32.8814 14.9803 33.4374 18.5948 33.4374 22.5263C33.4374 26.4588 32.8814 30.0723 31.7579 33.3608C30.6617 36.6914 28.8334 39.4915 26.277 41.7396L26.2702 41.7455ZM30.83 12.0031C29.7857 8.82906 28.0534 6.19923 25.6311 4.11064C23.2087 2.02302 20.2863 0.978723 16.8617 0.978723C13.4371 0.978723 10.5147 2.02302 8.09234 4.11064C5.67 6.19826 3.91613 8.82906 2.83072 12.0031C1.74434 15.1771 1.20213 18.6848 1.20213 22.5263C1.20213 26.3678 1.74532 29.8765 2.83072 33.0495C3.91711 36.2235 5.67 38.8749 8.09234 41.0046C10.5147 43.0922 13.4371 44.1365 16.8617 44.1365C20.2863 44.1365 23.2087 43.0922 25.6311 41.0046C28.0534 38.8749 29.7857 36.2235 30.83 33.0495C31.9164 29.8755 32.4586 26.3678 32.4586 22.5263C32.4586 18.6848 31.9154 15.1761 30.83 12.0031ZM20.0191 31.6353L20.022 31.6274C20.7893 29.67 21.2072 26.6643 21.2072 22.5263C21.2072 18.3432 20.7893 15.3425 20.024 13.431L20.021 13.4232L20.0181 13.4154C19.6667 12.4905 19.2204 11.8778 18.7232 11.4951C18.2368 11.1203 17.6339 10.9147 16.8617 10.9147C16.064 10.9147 15.4357 11.1232 14.9258 11.5029C14.408 11.8895 13.9461 12.5042 13.5771 13.4232C12.8499 15.3415 12.4535 18.3462 12.4535 22.5263C12.4535 26.6604 12.8489 29.671 13.5791 31.6353C13.951 32.5778 14.4149 33.2071 14.9336 33.6025C15.4426 33.9891 16.0689 34.2005 16.8617 34.2005C17.629 34.2005 18.23 33.992 18.7164 33.6103C19.2155 33.2188 19.6628 32.5915 20.0161 31.6431L20.0191 31.6353ZM12.6649 13.0679C13.4998 10.9803 14.8994 9.936 16.8617 9.936C18.7829 9.936 20.1404 10.9803 20.9332 13.0679C21.768 15.1555 22.186 18.309 22.186 22.5263C22.186 26.7025 21.768 29.855 20.9332 31.9847C20.1404 34.1144 18.7829 35.1792 16.8617 35.1792C14.8994 35.1792 13.4998 34.1144 12.6649 31.9847C11.8722 29.855 11.4748 26.7025 11.4748 22.5263C11.4748 18.308 11.8712 15.1565 12.6649 13.0679ZM66.4996 44.3636H35.5406V34.8054L35.8656 34.5137C44.0986 27.1155 49.1928 22.3296 51.2002 20.1177C53.1714 17.9057 54.0189 16.0011 54.0189 14.3833C54.0189 13.3517 53.6666 12.5531 52.9619 11.913C52.2543 11.27 51.3128 10.9147 50.0492 10.9147C46.9075 10.9147 44.1837 12.2409 41.8397 15.0156L41.1203 15.8671L33.9101 7.96583L34.4474 7.31106C38.4406 2.43898 43.7355 0 50.2362 0C54.8499 0 58.6874 1.288 61.6569 3.93936C64.6812 6.56234 66.1854 10.0329 66.1854 14.258C66.1854 17.4174 65.0991 20.5297 63.0075 23.5804C61.2253 26.1975 58.2284 29.532 54.0561 33.5741H66.4986L66.4996 44.3636ZM51.6152 34.5529C51.9666 34.222 52.3101 33.8961 52.6458 33.5741C57.188 29.2257 60.3738 25.7101 62.2011 23.0274C64.2055 20.104 65.2077 17.1815 65.2077 14.258C65.2077 10.2913 63.8081 7.09672 61.0109 4.67438C58.2549 2.21094 54.6639 0.978723 50.2372 0.978723C44.0154 0.978723 39.0043 3.29634 35.204 7.93157L41.092 14.3833C41.3073 14.1289 41.5265 13.8842 41.7487 13.6512C44.1143 11.1751 46.8811 9.936 50.0492 9.936C51.5105 9.936 52.7016 10.3539 53.6196 11.1888C54.5386 12.0236 54.9977 13.0885 54.9977 14.3833C54.9977 16.3457 53.9749 18.4754 51.9284 20.7724C49.8829 23.0274 44.7455 27.8506 36.5194 35.2419V43.3848H65.5209V34.5529H51.6152Z" fill="black"/>
</g>
<defs>
<clipPath id="clip0_18_800">
<rect width="66.5532" height="46" fill="white" transform="translate(0.223404)"/>
</clipPath>
</defs>
</svg>
