<svg width="101" height="100" viewBox="0 0 101 100" fill="none" xmlns="http://www.w3.org/2000/svg">
<path d="M50.5 8.58902C50.5 3.84502 46.627 -0.074981 41.953 0.736019C30.5139 2.7208 20.122 8.62452 12.5603 17.4343C4.99849 26.2441 0.738219 37.4108 0.510341 49.0186C0.282463 60.6264 4.10119 71.9517 11.3114 81.0514C18.5215 90.1512 28.6737 96.4583 40.0261 98.8905C51.3785 101.323 63.2234 99.7285 73.5288 94.3813C83.8342 89.0342 91.9576 80.2674 96.5053 69.5852C101.053 58.9029 101.741 46.971 98.4527 35.8365C95.164 24.702 88.1029 15.0591 78.481 8.56202C74.55 5.90802 69.411 7.89702 67.467 12.224C65.523 16.551 67.559 21.56 71.236 24.557C76.9476 29.2119 80.9268 35.6532 82.5331 42.8442C84.1394 50.0352 83.2793 57.5574 80.0914 64.2003C76.9035 70.8431 71.5732 76.2201 64.9583 79.4657C58.3435 82.7113 50.829 83.6368 43.6243 82.0932C36.4196 80.5496 29.9439 76.6266 25.2395 70.9558C20.535 65.285 17.8755 58.1961 17.689 50.8303C17.5025 43.4645 19.7999 36.2502 24.2113 30.3485C28.6228 24.4469 34.8917 20.2013 42.009 18.295C46.59 17.068 50.5 13.332 50.5 8.58902Z" fill="#549E75"/>
</svg>
