<svg width="51" height="100" viewBox="0 0 51 100" fill="none" xmlns="http://www.w3.org/2000/svg">
<path d="M50.5 8.58902C50.5 3.84502 46.627 -0.074981 41.953 0.736019C30.3479 2.75004 19.8263 8.79616 12.2427 17.8087C4.65919 26.8212 0.500612 38.2214 0.5 50C0.500017 61.7788 4.65838 73.1794 12.242 82.192C19.8257 91.2046 30.3476 97.2506 41.953 99.264C46.627 100.075 50.5 96.154 50.5 91.411C50.5 86.668 46.59 82.932 42.009 81.705C36.4421 80.2143 31.3657 77.2845 27.29 73.21C23.2162 69.1355 20.2867 64.0605 18.7959 58.495C17.3051 52.9295 17.3055 47.0697 18.7971 41.5044C20.2887 35.9391 23.2189 30.8645 27.2933 26.7906C31.3676 22.7167 36.4426 19.787 42.008 18.296C46.59 17.068 50.5 13.332 50.5 8.58902Z" fill="#549E75"/>
</svg>
