<svg width="101" height="100" viewBox="0 0 101 100" fill="none" xmlns="http://www.w3.org/2000/svg">
<path d="M50.5 8.33902C50.5 3.59502 46.627 -0.324981 41.953 0.486019C31.2806 2.3376 21.4981 7.60487 14.0772 15.4954C6.65641 23.3858 1.99862 33.4728 0.804631 44.2386C-0.389357 55.0045 1.94504 65.8669 7.45661 75.1916C12.9682 84.5164 21.3588 91.7992 31.3662 95.9442C41.3735 100.089 52.4563 100.873 62.9471 98.176C73.438 95.4795 82.7694 89.4491 89.5376 80.9921C96.3057 72.5351 100.145 62.1089 100.476 51.2822C100.808 40.4555 97.6154 29.8137 91.378 20.958C88.648 17.08 83.136 17.114 79.782 20.468C76.428 23.822 76.551 29.228 78.923 33.335C81.9874 38.6406 83.5055 44.698 83.3054 50.8217C83.1054 56.9454 81.1952 62.8908 77.791 67.985C74.8426 72.3974 70.8682 76.0291 66.2085 78.5688C61.5488 81.1085 56.3428 82.4805 51.0366 82.5671C45.7304 82.6537 40.4824 81.4524 35.7423 79.0661C31.0022 76.6798 26.9114 73.1798 23.8205 68.8659C20.7297 64.5521 18.7309 59.5531 17.9956 54.2974C17.2602 49.0418 17.8102 43.6862 19.5984 38.6897C21.3866 33.6931 24.3597 29.2048 28.2629 25.6092C32.166 22.0136 36.8828 19.418 42.009 18.045C46.59 16.818 50.5 13.082 50.5 8.33902Z" fill="#549E75"/>
</svg>
