<svg width="44" height="51" viewBox="0 0 44 51" fill="none" xmlns="http://www.w3.org/2000/svg">
<path d="M33.8602 23.4206C35.0853 36.0469 39.8947 39.8626 39.8947 39.8626H2C2 39.8626 8.31579 34.8518 8.31579 17.3136C8.31579 13.3267 9.64661 9.50312 12.0155 6.68397C14.3844 3.86479 17.5973 2.28101 20.9474 2.28101C21.6575 2.28101 22.3615 2.35218 23.0526 2.4912" stroke="#0E5750" stroke-width="3" stroke-linecap="round" stroke-linejoin="round"/>
<path d="M35.6844 16.3741C39.1727 16.3741 42.0002 13.2192 42.0002 9.32755C42.0002 5.43586 39.1727 2.28101 35.6844 2.28101C32.1962 2.28101 29.3687 5.43586 29.3687 9.32755C29.3687 13.2192 32.1962 16.3741 35.6844 16.3741Z" stroke="#0E5750" stroke-width="3" stroke-linecap="round" stroke-linejoin="round"/>
<path d="M24.5899 46.9091C24.2198 47.6211 23.6886 48.212 23.0492 48.6226C22.4101 49.0334 21.6855 49.2497 20.9478 49.2497C20.2101 49.2497 19.4855 49.0334 18.8463 48.6226C18.2071 48.212 17.6758 47.6211 17.3057 46.9091" stroke="#0E5750" stroke-width="3" stroke-linecap="round" stroke-linejoin="round"/>
</svg>
