<svg width="32" height="32" viewBox="0 0 32 32" fill="none" xmlns="http://www.w3.org/2000/svg">
<g clip-path="url(#clip0_84_895)">
<path fill-rule="evenodd" clip-rule="evenodd" d="M15.125 5.96087C15.3049 5.33074 15.992 4.82927 16.7613 5.05506C17.384 5.23781 17.9815 5.53508 18.4715 6.01185C18.9667 6.49364 19.3106 7.11878 19.4823 7.88912C19.784 9.24319 19.5127 11.932 18.6812 14.3373H23.2896C24.8066 14.3373 26.1346 15.561 25.9891 17.143C25.6889 20.4054 24.7059 22.8796 23.5361 24.4852C22.9529 25.2856 22.3284 25.8962 21.7326 26.3142C21.1627 26.7141 20.5292 27 19.9397 27H12.5845C11.6395 27 10.8563 26.2916 10.7748 25.3728L9.93353 14.9436C9.8733 14.265 10.2134 13.66 10.7095 13.2971C12.0162 12.3412 13.0261 10.873 13.7664 9.42079C14.5012 7.97946 14.9359 6.62276 15.125 5.96087ZM16.6483 6.7823C16.4048 7.57257 15.964 8.8309 15.2846 10.1638C14.4904 11.7215 13.3353 13.4513 11.7248 14.6294C11.6368 14.6937 11.6212 14.7668 11.6241 14.7996L12.4654 25.2288C12.471 25.292 12.5235 25.3373 12.5845 25.3373H19.9397C20.0137 25.3373 20.296 25.2771 20.7446 24.9624C21.1673 24.6657 21.664 24.193 22.155 23.5191C23.1336 22.1759 24.0232 19.9897 24.2989 16.9937C24.3457 16.4852 23.9148 16 23.2896 16H17.8243C17.035 16 16.5466 15.2254 16.8023 14.5518C17.8353 11.8304 18.052 9.26564 17.8243 8.24385C17.7151 7.75367 17.5158 7.42526 17.2757 7.19165C17.1076 7.02804 16.8997 6.892 16.6483 6.7823ZM6.77504 13.9388C7.24189 13.899 7.65326 14.2376 7.69386 14.695L8.66357 25.6215C8.70416 26.079 8.35862 26.482 7.89176 26.5218C7.42491 26.5616 7.01355 26.223 6.97295 25.7656L6.00324 14.839C5.96264 14.3816 6.30819 13.9786 6.77504 13.9388Z" fill="black" fill-opacity="0.45"/>
</g>
<defs>
<clipPath id="clip0_84_895">
<rect width="32" height="32" fill="white"/>
</clipPath>
</defs>
</svg>
