<svg width="33" height="32" viewBox="0 0 33 32" fill="none" xmlns="http://www.w3.org/2000/svg">
<g clip-path="url(#clip0_84_905)">
<path fill-rule="evenodd" clip-rule="evenodd" d="M16.5773 24.8103C21.3516 24.8103 25.222 20.8658 25.222 16C25.222 11.1342 21.3516 7.18966 16.5773 7.18966C11.8029 7.18966 7.93252 11.1342 7.93252 16C7.93252 17.3906 8.24806 18.7038 8.80937 19.8712C8.88951 20.0379 8.91356 20.2268 8.8778 20.4088C8.73987 21.111 8.53308 21.7246 8.20898 22.2531C7.76762 22.9728 7.19232 23.6999 6.72466 24.2513C7.9926 24.4544 9.49217 24.2342 11.0544 23.3754C11.3204 23.2292 11.6434 23.2421 11.8974 23.409C13.2458 24.2957 14.8513 24.8103 16.5773 24.8103ZM4.61854 24.0965L4.62113 24.0939L4.63174 24.0828L4.67554 24.0367C4.71428 23.9957 4.77138 23.9348 4.84291 23.857C4.98612 23.7013 5.18628 23.479 5.41219 23.2147C5.86927 22.6799 6.41043 21.9979 6.80308 21.3576C6.95858 21.104 7.08966 20.7795 7.1945 20.3426C6.6035 19.0182 6.27463 17.5472 6.27463 16C6.27463 10.201 10.8873 5.5 16.5773 5.5C22.2673 5.5 26.8799 10.201 26.8799 16C26.8799 21.799 22.2673 26.5 16.5773 26.5C14.6959 26.5 12.9303 25.9853 11.411 25.0863C9.07145 26.2334 6.74467 26.2571 4.89001 25.4695C4.6357 25.3615 4.45065 25.1318 4.39623 24.8566C4.3418 24.5813 4.42512 24.2965 4.61854 24.0965Z" fill="black" fill-opacity="0.45"/>
</g>
<defs>
<clipPath id="clip0_84_905">
<rect width="32" height="32" fill="white" transform="translate(0.379883)"/>
</clipPath>
</defs>
</svg>
