<svg width="33" height="32" viewBox="0 0 33 32" fill="none" xmlns="http://www.w3.org/2000/svg">
<g clip-path="url(#clip0_84_915)">
<path fill-rule="evenodd" clip-rule="evenodd" d="M14.9137 5.0926C15.2064 4.93767 15.5544 4.97953 15.8093 5.20035L27.4382 15.2726C27.6413 15.4486 27.7598 15.7165 27.7598 16C27.7598 16.2835 27.6413 16.5514 27.4382 16.7274L15.8093 26.7996C15.5544 27.0205 15.2064 27.0623 14.9137 26.9074C14.621 26.7525 14.4351 26.428 14.4351 26.0723V21.2468C13.7289 21.3704 12.9699 21.6355 12.1892 22.0039C11.093 22.5213 10.0036 23.2186 9.03038 23.9285C8.05929 24.6368 7.21838 25.3469 6.61997 25.8803C6.32123 26.1466 6.08408 26.3679 5.92264 26.5216C5.84195 26.5984 5.78026 26.6582 5.73932 26.6983L5.69374 26.7431L5.68306 26.7538L5.68082 26.756C5.43295 27.0045 5.07401 27.0696 4.76627 26.9214C4.45848 26.7733 4.25977 26.4402 4.25977 26.0723H5.10771C4.25977 26.0723 4.25977 26.0712 4.25977 26.0712V26.0699L4.25978 26.0666L4.25984 26.0568L4.26019 26.0253C4.26058 25.9991 4.26131 25.9624 4.26272 25.9159C4.26552 25.8228 4.27101 25.6902 4.28171 25.5229C4.30311 25.1885 4.34545 24.714 4.42929 24.1374C4.59666 22.9864 4.93128 21.4158 5.60277 19.7366C6.90121 16.4895 9.46133 12.844 14.4351 11.0725V5.92772C14.4351 5.57196 14.621 5.24753 14.9137 5.0926ZM6.19248 23.882C6.73049 23.4254 7.37572 22.9055 8.08968 22.3847C9.11515 21.6367 10.297 20.8763 11.5175 20.3003C12.7303 19.7279 14.0319 19.3132 15.283 19.3132C15.7513 19.3132 16.1309 19.7286 16.1309 20.241V24.1546L25.5458 16L16.1309 7.84539V11.759C16.1309 12.1732 15.88 12.5373 15.5159 12.6511C10.7203 14.1501 8.34936 17.4971 7.15646 20.4803C6.65594 21.7319 6.36327 22.921 6.19248 23.882Z" fill="black" fill-opacity="0.45"/>
</g>
<defs>
<clipPath id="clip0_84_915">
<rect width="32" height="32" fill="white" transform="translate(0.759766)"/>
</clipPath>
</defs>
</svg>
