<svg width="32" height="32" viewBox="0 0 32 32" fill="none" xmlns="http://www.w3.org/2000/svg">
<g clip-path="url(#clip0_84_921)">
<path d="M16.875 26.0391C16.6951 26.6693 16.008 27.1707 15.2387 26.9449C14.616 26.7622 14.0185 26.4649 13.5285 25.9882C13.0333 25.5064 12.6894 24.8812 12.5177 24.1109C12.216 22.7568 12.4873 20.068 13.3188 17.6627H8.7104C7.19341 17.6627 5.86538 16.439 6.01095 14.857C6.31116 11.5946 7.29406 9.12043 8.46386 7.51483C9.04707 6.71436 9.67159 6.10383 10.2674 5.68579C10.8373 5.28592 11.4708 5 12.0603 5H19.4155C20.3605 5 21.1437 5.70839 21.2252 6.62717L22.0665 17.0564C22.1267 17.735 21.7866 18.34 21.2905 18.7029C19.9838 19.6588 18.9739 21.127 18.2336 22.5792C17.4988 24.0205 17.0641 25.3772 16.875 26.0391ZM15.3517 25.2177C15.5952 24.4274 16.036 23.1691 16.7154 21.8362C17.5096 20.2785 18.6647 18.5487 20.2752 17.3706C20.3632 17.3063 20.3788 17.2332 20.3759 17.2004L19.5346 6.77121C19.529 6.70801 19.4765 6.66273 19.4155 6.66273H12.0603C11.9863 6.66273 11.704 6.72286 11.2554 7.03764C10.8327 7.33425 10.336 7.80697 9.84503 8.4809C8.8664 9.82411 7.97678 12.0103 7.70109 15.0063C7.65429 15.5148 8.08516 16 8.7104 16H14.1757C14.965 16 15.4534 16.7746 15.1977 17.4482C14.1647 20.1696 13.948 22.7344 14.1757 23.7562C14.2849 24.2463 14.4842 24.5747 14.7243 24.8084C14.8924 24.972 15.1003 25.108 15.3517 25.2177ZM25.225 18.0612C24.7581 18.101 24.3467 17.7624 24.3061 17.305L23.3364 6.37845C23.2958 5.92103 23.6414 5.51797 24.1082 5.47819C24.5751 5.43842 24.9865 5.77699 25.027 6.23441L25.9968 17.161C26.0374 17.6184 25.6918 18.0214 25.225 18.0612Z" fill="black" fill-opacity="0.45"/>
</g>
<defs>
<clipPath id="clip0_84_921">
<rect width="32" height="32" fill="white"/>
</clipPath>
</defs>
</svg>
