<svg width="33" height="32" viewBox="0 0 33 32" fill="none" xmlns="http://www.w3.org/2000/svg">
<g clip-path="url(#clip0_87_1311)">
<path fill-rule="evenodd" clip-rule="evenodd" d="M17.0075 24.8103C21.7818 24.8103 25.6522 20.8658 25.6522 16C25.6522 11.1342 21.7818 7.18966 17.0075 7.18966C12.2331 7.18966 8.3627 11.1342 8.3627 16C8.3627 17.3906 8.67824 18.7038 9.23955 19.8712C9.31969 20.0379 9.34374 20.2268 9.30798 20.4088C9.17005 21.111 8.96326 21.7246 8.63916 22.2531C8.1978 22.9728 7.6225 23.6999 7.15484 24.2513C8.42278 24.4544 9.92235 24.2342 11.4846 23.3754C11.7506 23.2292 12.0736 23.2421 12.3276 23.409C13.676 24.2957 15.2815 24.8103 17.0075 24.8103ZM5.04872 24.0965L5.05131 24.0939L5.06192 24.0828L5.10572 24.0367C5.14446 23.9957 5.20156 23.9348 5.27309 23.857C5.4163 23.7013 5.61646 23.479 5.84237 23.2147C6.29945 22.6799 6.84061 21.9979 7.23326 21.3576C7.38876 21.104 7.51984 20.7795 7.62468 20.3426C7.03368 19.0182 6.70481 17.5472 6.70481 16C6.70481 10.201 11.3175 5.5 17.0075 5.5C22.6975 5.5 27.3101 10.201 27.3101 16C27.3101 21.799 22.6975 26.5 17.0075 26.5C15.1261 26.5 13.3605 25.9853 11.8412 25.0863C9.50163 26.2334 7.17485 26.2571 5.32019 25.4695C5.06588 25.3615 4.88083 25.1318 4.82641 24.8566C4.77198 24.5813 4.8553 24.2965 5.04872 24.0965Z" fill="black" fill-opacity="0.45"/>
</g>
<defs>
<clipPath id="clip0_87_1311">
<rect width="32" height="32" fill="white" transform="translate(0.810059)"/>
</clipPath>
</defs>
</svg>
