<svg width="33" height="32" viewBox="0 0 33 32" fill="none" xmlns="http://www.w3.org/2000/svg">
<g clip-path="url(#clip0_87_1321)">
<path fill-rule="evenodd" clip-rule="evenodd" d="M14.7638 5.0926C15.0565 4.93767 15.4045 4.97953 15.6594 5.20035L27.2883 15.2726C27.4914 15.4486 27.6099 15.7165 27.6099 16C27.6099 16.2835 27.4914 16.5514 27.2883 16.7274L15.6594 26.7996C15.4045 27.0205 15.0565 27.0623 14.7638 26.9074C14.4711 26.7525 14.2852 26.428 14.2852 26.0723V21.2468C13.579 21.3704 12.82 21.6355 12.0393 22.0039C10.9431 22.5213 9.85371 23.2186 8.88047 23.9285C7.90938 24.6368 7.06847 25.3469 6.47006 25.8803C6.17132 26.1466 5.93417 26.3679 5.77273 26.5216C5.69204 26.5984 5.63035 26.6582 5.58941 26.6983L5.54383 26.7431L5.53315 26.7538L5.53091 26.756C5.28304 27.0045 4.9241 27.0696 4.61636 26.9214C4.30857 26.7733 4.10986 26.4402 4.10986 26.0723H4.9578C4.10986 26.0723 4.10986 26.0712 4.10986 26.0712V26.0699L4.10987 26.0666L4.10993 26.0568L4.11028 26.0253C4.11067 25.9991 4.1114 25.9624 4.11281 25.9159C4.11561 25.8228 4.1211 25.6902 4.1318 25.5229C4.1532 25.1885 4.19554 24.714 4.27938 24.1374C4.44675 22.9864 4.78137 21.4158 5.45286 19.7366C6.7513 16.4895 9.31142 12.844 14.2852 11.0725V5.92772C14.2852 5.57196 14.4711 5.24753 14.7638 5.0926ZM6.04257 23.882C6.58058 23.4254 7.22581 22.9055 7.93977 22.3847C8.96524 21.6367 10.1471 20.8763 11.3676 20.3003C12.5804 19.7279 13.882 19.3132 15.1331 19.3132C15.6014 19.3132 15.981 19.7286 15.981 20.241V24.1546L25.3959 16L15.981 7.84539V11.759C15.981 12.1732 15.7301 12.5373 15.366 12.6511C10.5704 14.1501 8.19945 17.4971 7.00655 20.4803C6.50603 21.7319 6.21336 22.921 6.04257 23.882Z" fill="black" fill-opacity="0.45"/>
</g>
<defs>
<clipPath id="clip0_87_1321">
<rect width="32" height="32" fill="white" transform="translate(0.609863)"/>
</clipPath>
</defs>
</svg>
