<svg width="24" height="24" viewBox="0 0 24 24" fill="none" xmlns="http://www.w3.org/2000/svg">
<g clip-path="url(#clip0_84_1223)">
<path fill-rule="evenodd" clip-rule="evenodd" d="M17.0002 10.5C17.0002 8.77609 16.3154 7.12279 15.0964 5.90381C13.8775 4.68482 12.2242 4 10.5002 4C8.77634 4 7.12304 4.68482 5.90405 5.90381C4.68506 7.12279 4.00024 8.77609 4.00024 10.5C4.00024 12.2239 4.68506 13.8772 5.90405 15.0962C7.12304 16.3152 8.77634 17 10.5002 17C12.2242 17 13.8775 16.3152 15.0964 15.0962C16.3154 13.8772 17.0002 12.2239 17.0002 10.5ZM15.7622 17.175C14.0599 18.517 11.9091 19.1579 9.74989 18.9666C7.59064 18.7753 5.58606 17.7663 4.14616 16.1459C2.70626 14.5255 1.93985 12.4162 2.00369 10.2494C2.06753 8.08266 2.95679 6.02215 4.4896 4.48935C6.0224 2.95655 8.08291 2.06729 10.2497 2.00345C12.4164 1.93961 14.5257 2.70602 16.1461 4.14591C17.7665 5.58581 18.7755 7.59039 18.9668 9.74964C19.1581 11.9089 18.5172 14.0597 17.1752 15.762L17.2072 15.792L20.7072 19.292C20.8002 19.3848 20.8739 19.4951 20.9242 19.6164C20.9745 19.7377 21.0004 19.8678 21.0004 19.9991C21.0005 20.1305 20.9747 20.2606 20.9244 20.3819C20.8742 20.5033 20.8006 20.6136 20.7077 20.7065C20.6149 20.7994 20.5047 20.8731 20.3833 20.9234C20.262 20.9737 20.1319 20.9997 20.0006 20.9997C19.8692 20.9997 19.7392 20.9739 19.6178 20.9237C19.4964 20.8735 19.3862 20.7998 19.2932 20.707L15.7932 17.207L15.7622 17.175Z" fill="black" fill-opacity="0.45"/>
</g>
<defs>
<clipPath id="clip0_84_1223">
<rect width="24" height="24" fill="white"/>
</clipPath>
</defs>
</svg>
